<?xml version="1.0" encoding="UTF-8" standalone="no"?>
<svg xmlns="http://www.w3.org/2000/svg" width="32" height="32" viewBox="0 0 32 32">
  <!-- Shield background - blue for security -->
  <path fill="#2563eb" d="M16 2C9.5 2 4.6 6.8 4.6 13.4c0 2.1 1 4 2.8 5.6L16 28l8.6-9c1.8-1.6 2.8-3.5 2.8-5.6C27.4 6.8 22.5 2 16 2z"/>
  <!-- Phishing hook - red danger -->
  <path fill="#ef4444" stroke="#b91c1c" stroke-width="1.5" stroke-linecap="round" stroke-linejoin="round" d="M9 13c1.5 0 2.7-1.2 2.7-2.7s-1.2-2.7-2.7-2.7-2.7 1.2-2.7 2.7 1.2 2.7 2.7 2.7z M16 18l3-6h4v2h-3l-1.5 3h-2.5z"/>
  <!-- PG initials -->
  <text x="16" y="20" font-family="Arial, sans-serif" font-size="12" font-weight="bold" fill="white" text-anchor="middle">PG</text>
</svg>
